<?xml version="1.0" encoding="utf-8"?>
<!-- Generator: Adobe Illustrator 23.1.0, SVG Export Plug-In . SVG Version: 6.00 Build 0)  -->
<svg version="1.1" id="Layer_1" xmlns="http://www.w3.org/2000/svg" xmlns:xlink="http://www.w3.org/1999/xlink" x="0px" y="0px"
	 viewBox="0 0 470 187.28" style="enable-background:new 0 0 470 187.28;" xml:space="preserve">
<style type="text/css">
	.st0{display:none;opacity:0.15;fill:url(#);}
	.st1{fill:#235472;}
	.st2{fill:#3183A9;}
	.st3{fill:#EE217C;}
	.st4{fill:#92278F;}
	.st5{fill:#8EC63F;}
	.st6{fill:#F7941F;}
	.st7{fill:#606060;}
	.st8{fill:#012B5D;}
	.st9{fill:#4F4F4F;}
	.st10{fill:#FFFFFF;}
</style>
<g id="XMLID_1107_">
	<g id="XMLID_859_">
		<g id="XMLID_1099_">
			<path id="XMLID_105_" class="st1" d="M14.69,92.8c0,8.73,1.81,17.32,5.25,25.25c-0.55,0.16-1.07,0.37-1.55,0.66
				c-0.71,0.4-1.31,0.92-1.79,1.5c-3.84-8.57-5.84-17.92-5.84-27.41c0-9.82,2.11-19.13,5.92-27.54c0.48,0.53,1.05,1,1.71,1.39
				c0.53,0.29,1.1,0.53,1.68,0.69C16.61,75.14,14.69,83.75,14.69,92.8z"/>
			<path id="XMLID_107_" class="st1" d="M70.61,28.28c0,0.65,0.08,1.26,0.26,1.86c-17.95,1.95-33.67,11.48-43.88,25.31
				c-0.44-0.44-0.92-0.81-1.47-1.13c-0.63-0.37-1.31-0.63-2.02-0.79c10.93-15.05,27.96-25.39,47.43-27.36
				C70.72,26.84,70.61,27.55,70.61,28.28z"/>
			<path id="XMLID_106_" class="st1" d="M131.95,53.53c-0.69,0.16-1.37,0.42-2,0.79c-0.55,0.32-1.03,0.69-1.47,1.15
				c-10.2-13.83-25.93-23.38-43.89-25.33c0.18-0.6,0.26-1.21,0.26-1.86c0-0.73-0.11-1.44-0.32-2.11
				C103.99,28.13,121.02,38.48,131.95,53.53z"/>
			<path id="XMLID_103_" class="st1" d="M144.71,92.8c0,9.49-2,18.84-5.84,27.41c-0.48-0.58-1.08-1.1-1.79-1.5
				c-0.48-0.29-1.02-0.5-1.55-0.66c3.45-7.93,5.25-16.51,5.25-25.25c0-9.06-1.92-17.66-5.38-25.46c0.58-0.16,1.15-0.4,1.68-0.69
				c0.66-0.39,1.23-0.86,1.71-1.39C142.59,73.67,144.71,82.99,144.71,92.8z"/>
		</g>
		<g id="XMLID_1090_">
			<circle id="XMLID_652_" class="st2" cx="77.73" cy="13.93" r="2.51"/>
		</g>
		<g id="XMLID_1081_">
			<circle id="XMLID_650_" class="st3" cx="9.53" cy="53.3" r="2.51"/>
		</g>
		<g id="XMLID_1072_">
			<circle id="XMLID_649_" class="st4" cx="9.53" cy="132.06" r="2.51"/>
		</g>
		<g id="XMLID_1065_">
			<circle id="XMLID_796_" class="st5" cx="145.93" cy="132.06" r="2.51"/>
		</g>
		<g id="XMLID_1056_">
			<circle id="XMLID_648_" class="st6" cx="145.93" cy="53.3" r="2.51"/>
		</g>
		<g id="XMLID_1053_">
			<circle id="XMLID_647_" class="st2" cx="77.73" cy="53.47" r="13.24"/>
		</g>
		<g id="XMLID_1050_">
			<circle id="XMLID_646_" class="st3" cx="43.78" cy="73.08" r="13.24"/>
		</g>
		<g id="XMLID_1047_">
			<circle id="XMLID_628_" class="st4" cx="43.78" cy="112.28" r="13.24"/>
		</g>
		<g id="XMLID_1043_">
			<path id="XMLID_625_" class="st2" d="M96.18,92.68c0-10.19-8.26-18.45-18.45-18.45c-10.19,0-18.45,8.26-18.45,18.45
				c0,1.67,0.23,3.28,0.64,4.82l4.57,34.38c0,7.31,5.93,13.24,13.24,13.24c7.31,0,13.24-5.93,13.24-13.24l4.57-34.38
				C95.95,95.96,96.18,94.35,96.18,92.68z"/>
		</g>
		<g id="XMLID_1027_">
			<circle id="XMLID_623_" class="st5" cx="111.68" cy="112.28" r="13.24"/>
		</g>
		<g id="XMLID_989_">
			<circle id="XMLID_622_" class="st6" cx="111.68" cy="73.08" r="13.24"/>
		</g>
		<g id="XMLID_865_">
			<path id="XMLID_620_" class="st1" d="M104.5,159.73L104.5,159.73c0-2.11-1.71-3.82-3.82-3.82h-45.9c-2.11,0-3.82,1.71-3.82,3.82
				v0c0,2.11,1.71,3.82,3.82,3.82h45.9C102.79,163.55,104.5,161.84,104.5,159.73z"/>
		</g>
		<g id="XMLID_862_">
			<path id="XMLID_401_" class="st1" d="M93.9,172.04L93.9,172.04c0-2.11-1.71-3.82-3.82-3.82H65.38c-2.11,0-3.82,1.71-3.82,3.82
				l0,0c0,2.11,1.71,3.82,3.82,3.82h24.71C92.19,175.86,93.9,174.15,93.9,172.04z"/>
		</g>
		<path id="XMLID_109_" class="st4" d="M24.86,129.92c-0.92,0.53-1.92,0.77-2.91,0.77c-2,0-3.96-1.03-5.04-2.91
			c-1.16-2.02-0.97-4.44,0.29-6.23c0.45-0.68,1.08-1.26,1.84-1.7c0.47-0.27,0.95-0.47,1.44-0.6s0.98-0.19,1.47-0.19
			c2,0,3.96,1.05,5.04,2.91C28.59,124.75,27.63,128.3,24.86,129.92z"/>
		<path id="XMLID_108_" class="st3" d="M26.99,63.39c-1.08,1.86-3.03,2.91-5.04,2.91c-0.44,0-0.89-0.05-1.32-0.16
			c-0.53-0.13-1.07-0.34-1.58-0.63c-0.71-0.4-1.29-0.94-1.74-1.57c-1.36-1.81-1.58-4.29-0.39-6.36c1.08-1.87,3.04-2.91,5.04-2.91
			c0.24,0,0.47,0.02,0.71,0.05c0.74,0.08,1.5,0.32,2.2,0.73c0.52,0.29,0.95,0.65,1.34,1.07C27.89,58.32,28.3,61.11,26.99,63.39z"/>
		<path id="XMLID_102_" class="st2" d="M83.54,28.28c0,0.6-0.1,1.18-0.26,1.73c-0.74,2.37-2.94,4.08-5.55,4.08
			c-2.62,0-4.81-1.71-5.55-4.08c-0.16-0.55-0.26-1.13-0.26-1.73c0-0.79,0.16-1.55,0.45-2.24c0.87-2.1,2.94-3.57,5.36-3.57
			s4.49,1.47,5.36,3.57C83.38,26.73,83.54,27.49,83.54,28.28z"/>
		<path id="XMLID_101_" class="st6" d="M138.15,63.94c-0.45,0.63-1.03,1.16-1.74,1.57c-0.52,0.29-1.05,0.5-1.58,0.63
			c-0.44,0.11-0.89,0.16-1.32,0.16c-2,0-3.96-1.05-5.02-2.91c-1.32-2.28-0.92-5.07,0.77-6.88c0.39-0.42,0.82-0.77,1.34-1.07
			c0.69-0.4,1.45-0.65,2.2-0.73c0.24-0.03,0.47-0.05,0.71-0.05c2,0,3.96,1.03,5.04,2.91C139.73,59.64,139.51,62.13,138.15,63.94z"/>
		<path id="XMLID_104_" class="st5" d="M138.54,127.78c-1.08,1.87-3.04,2.91-5.04,2.91c-0.98,0-1.99-0.24-2.91-0.77
			c-2.78-1.61-3.73-5.17-2.11-7.94c1.07-1.86,3.02-2.91,5.02-2.91c0.48,0,0.98,0.06,1.47,0.19c0.48,0.13,0.97,0.32,1.44,0.6
			c0.76,0.44,1.39,1.02,1.84,1.7C139.51,123.34,139.7,125.77,138.54,127.78z"/>
	</g>
	<g id="XMLID_425_">
		<g id="XMLID_1226_">
			<g>
				<path id="XMLID_380_" class="st1" d="M207.96,82.36c-1.38,2.28-3.42,4.1-6.11,5.46c-2.69,1.36-5.95,2.04-9.79,2.04
					c-5.77,0-10.53-1.41-14.26-4.22c-3.74-2.81-5.77-6.74-6.11-11.79h13.24c0.19,1.94,0.89,3.47,2.07,4.58
					c1.19,1.12,2.7,1.67,4.55,1.67c1.6,0,2.86-0.44,3.78-1.31c0.92-0.87,1.38-2.04,1.38-3.49c0-1.31-0.43-2.4-1.27-3.27
					c-0.85-0.87-1.9-1.59-3.16-2.15c-1.26-0.56-3.01-1.22-5.24-2c-3.25-1.12-5.91-2.19-7.97-3.24c-2.06-1.04-3.83-2.59-5.31-4.66
					c-1.48-2.06-2.22-4.74-2.22-8.04c0-3.06,0.78-5.7,2.33-7.93c1.55-2.23,3.7-3.94,6.44-5.13c2.74-1.19,5.88-1.78,9.42-1.78
					c5.72,0,10.27,1.36,13.64,4.08c3.37,2.72,5.27,6.45,5.71,11.21h-13.46c-0.24-1.7-0.86-3.04-1.86-4.04
					c-0.99-0.99-2.34-1.49-4.04-1.49c-1.46,0-2.63,0.39-3.53,1.16c-0.9,0.78-1.35,1.92-1.35,3.42c0,1.21,0.4,2.24,1.2,3.09
					c0.8,0.85,1.81,1.54,3.02,2.07c1.21,0.53,2.96,1.21,5.24,2.04c3.3,1.12,5.99,2.22,8.08,3.31c2.08,1.09,3.88,2.68,5.38,4.77
					c1.5,2.09,2.26,4.8,2.26,8.15C210.03,77.58,209.34,80.08,207.96,82.36z"/>
				<path id="XMLID_324_" class="st1" d="M229.39,71.3v18.05h-12.44V37.9h20.16c6.11,0,10.77,1.52,13.97,4.55
					c3.2,3.03,4.8,7.12,4.8,12.26c0,3.2-0.72,6.05-2.15,8.55c-1.43,2.5-3.55,4.46-6.37,5.89c-2.81,1.43-6.23,2.15-10.26,2.15H229.39
					z M243.22,54.71c0-4.51-2.5-6.77-7.49-6.77h-6.33v13.39h6.33C240.72,61.33,243.22,59.12,243.22,54.71z"/>
				<path id="XMLID_321_" class="st1" d="M293.86,79.96h-19.28l-3.2,9.39h-13.1l18.85-51.08h14.34l18.85,51.08h-13.24L293.86,79.96z
					 M290.66,70.5l-6.4-18.92l-6.48,18.92H290.66z"/>
				<path id="XMLID_318_" class="st1" d="M346.99,79.96H327.7l-3.2,9.39h-13.1l18.85-51.08h14.34l18.85,51.08h-13.24L346.99,79.96z
					 M343.78,70.5l-6.4-18.92L330.9,70.5H343.78z"/>
				<path id="XMLID_315_" class="st1" d="M394.65,89.34l-11.13-19.43h-2.84v19.43h-12.44V37.9h21.25c4.08,0,7.52,0.7,10.33,2.11
					c2.81,1.41,4.92,3.34,6.33,5.78c1.41,2.45,2.11,5.25,2.11,8.41c0,3.74-1.03,6.91-3.09,9.53c-2.06,2.62-5.06,4.41-8.99,5.38
					l12.22,20.23H394.65z M380.68,61.4h7.71c2.47,0,4.29-0.55,5.46-1.64c1.16-1.09,1.75-2.7,1.75-4.84c0-2.04-0.59-3.64-1.78-4.8
					c-1.19-1.16-3-1.75-5.42-1.75h-7.71V61.4z"/>
				<path id="XMLID_313_" class="st1" d="M454.54,42.12c4.17,3.15,6.77,7.42,7.79,12.81h-13.17c-0.87-1.84-2.21-3.31-4-4.4
					c-1.8-1.09-3.96-1.64-6.48-1.64c-3.93,0-7.08,1.32-9.46,3.97c-2.38,2.64-3.57,6.22-3.57,10.73c0,4.9,1.25,8.66,3.75,11.28
					c2.5,2.62,6.05,3.93,10.66,3.93c2.96,0,5.56-0.81,7.79-2.44c2.23-1.62,3.81-3.94,4.73-6.95h-15.72v-8.95h26.13v12.3
					c-0.97,3.01-2.52,5.8-4.66,8.37c-2.13,2.57-4.86,4.66-8.19,6.26s-7.12,2.4-11.39,2.4c-5.19,0-9.73-1.1-13.61-3.31
					c-3.88-2.21-6.88-5.3-8.99-9.28c-2.11-3.98-3.17-8.51-3.17-13.61c0-5.09,1.05-9.63,3.17-13.61c2.11-3.98,5.09-7.07,8.95-9.28
					c3.86-2.21,8.36-3.31,13.5-3.31C445.05,37.39,450.37,38.96,454.54,42.12z"/>
			</g>
		</g>
		<g id="XMLID_1181_">
			<g>
				<path id="XMLID_867_" class="st7" d="M188.11,102.41v2.39h-6.42v20.36h-2.94V104.8h-6.42v-2.39H188.11z"/>
				<path id="XMLID_863_" class="st7" d="M214.28,116.93h-14.17c0.06,2.02,0.64,3.54,1.73,4.55c1.09,1.01,2.42,1.52,3.99,1.52
					c1.42,0,2.61-0.36,3.57-1.08c0.96-0.72,1.54-1.68,1.76-2.89h3.13c-0.22,1.23-0.69,2.32-1.44,3.29
					c-0.74,0.97-1.71,1.72-2.89,2.26c-1.18,0.54-2.52,0.81-4,0.81c-1.7,0-3.21-0.37-4.52-1.1c-1.31-0.73-2.34-1.78-3.08-3.15
					c-0.74-1.37-1.11-2.97-1.11-4.82c0-1.85,0.37-3.46,1.11-4.84c0.74-1.38,1.77-2.43,3.08-3.16c1.31-0.73,2.82-1.1,4.52-1.1
					c1.72,0,3.22,0.37,4.5,1.1c1.28,0.73,2.26,1.71,2.94,2.94c0.68,1.23,1.02,2.58,1.02,4.07
					C214.4,115.94,214.36,116.48,214.28,116.93z M210.79,112.22c-0.5-0.88-1.17-1.54-2.03-1.97c-0.86-0.43-1.8-0.65-2.81-0.65
					c-1.61,0-2.97,0.5-4.07,1.5c-1.1,1-1.69,2.47-1.78,4.4h11.33C211.5,114.2,211.28,113.1,210.79,112.22z"/>
				<path id="XMLID_860_" class="st7" d="M238.8,109.02c1.48,1.21,2.4,2.82,2.74,4.84h-3.1c-0.21-1.27-0.8-2.26-1.76-2.99
					c-0.96-0.72-2.15-1.08-3.57-1.08c-1.03,0-1.97,0.24-2.82,0.71c-0.85,0.47-1.53,1.2-2.05,2.18c-0.52,0.98-0.77,2.19-0.77,3.63
					c0,1.44,0.26,2.65,0.77,3.63c0.52,0.98,1.2,1.7,2.05,2.18c0.85,0.47,1.79,0.71,2.82,0.71c1.42,0,2.61-0.37,3.57-1.1
					c0.96-0.73,1.54-1.73,1.76-3h3.1c-0.34,2.04-1.26,3.66-2.74,4.86c-1.49,1.19-3.36,1.79-5.62,1.79c-1.7,0-3.21-0.37-4.52-1.1
					c-1.31-0.73-2.34-1.78-3.08-3.15c-0.74-1.37-1.11-2.97-1.11-4.82c0-1.85,0.37-3.46,1.11-4.84c0.74-1.38,1.77-2.43,3.08-3.16
					c1.31-0.73,2.82-1.1,4.52-1.1C235.44,107.22,237.32,107.82,238.8,109.02z"/>
				<path id="XMLID_857_" class="st7" d="M266.81,109.14c1.27,1.32,1.9,3.23,1.9,5.73v10.29h-2.94v-10.04
					c0-1.76-0.45-3.12-1.35-4.07c-0.9-0.95-2.13-1.42-3.68-1.42c-1.61,0-2.9,0.52-3.87,1.57c-0.97,1.04-1.45,2.56-1.45,4.57v9.39
					h-2.94v-23.88h2.94v10.36c0.45-1.44,1.25-2.55,2.4-3.32c1.15-0.77,2.48-1.16,3.99-1.16
					C263.87,107.15,265.54,107.81,266.81,109.14z"/>
				<path id="XMLID_855_" class="st7" d="M294.66,109.14c1.27,1.32,1.9,3.23,1.9,5.73v10.29h-2.94v-10.04
					c0-1.76-0.45-3.12-1.35-4.07c-0.9-0.95-2.13-1.42-3.68-1.42c-1.61,0-2.9,0.52-3.87,1.57c-0.97,1.04-1.45,2.56-1.45,4.57v9.39
					h-2.94v-17.72h2.94v4.2c0.45-1.44,1.25-2.55,2.4-3.32c1.15-0.77,2.48-1.16,3.99-1.16C291.72,107.15,293.39,107.81,294.66,109.14
					z"/>
				<path id="XMLID_852_" class="st7" d="M320.78,108.32c1.34,0.73,2.4,1.79,3.16,3.16c0.76,1.38,1.15,2.99,1.15,4.84
					c0,1.85-0.38,3.46-1.15,4.82c-0.76,1.37-1.82,2.42-3.16,3.15c-1.34,0.73-2.87,1.1-4.57,1.1c-1.7,0-3.22-0.37-4.57-1.1
					c-1.34-0.73-2.4-1.78-3.18-3.15c-0.77-1.37-1.16-2.97-1.16-4.82c0-1.85,0.39-3.46,1.16-4.84c0.78-1.38,1.84-2.43,3.18-3.16
					c1.34-0.73,2.87-1.1,4.57-1.1C317.91,107.22,319.43,107.58,320.78,108.32z M313.29,110.51c-0.89,0.47-1.61,1.2-2.16,2.18
					c-0.55,0.98-0.82,2.19-0.82,3.63c0,1.42,0.27,2.62,0.82,3.6c0.55,0.98,1.27,1.7,2.16,2.18c0.89,0.47,1.87,0.71,2.92,0.71
					c1.05,0,2.03-0.24,2.92-0.71c0.89-0.47,1.61-1.2,2.16-2.18c0.55-0.98,0.82-2.18,0.82-3.6c0-1.44-0.27-2.65-0.82-3.63
					c-0.55-0.98-1.27-1.7-2.16-2.18c-0.89-0.47-1.87-0.71-2.92-0.71C315.16,109.8,314.18,110.04,313.29,110.51z"/>
				<path id="XMLID_850_" class="st7" d="M338.96,101.28v23.88h-2.94v-23.88H338.96z"/>
				<path id="XMLID_847_" class="st7" d="M363.37,108.32c1.34,0.73,2.4,1.79,3.16,3.16c0.76,1.38,1.15,2.99,1.15,4.84
					c0,1.85-0.38,3.46-1.15,4.82c-0.76,1.37-1.82,2.42-3.16,3.15c-1.34,0.73-2.87,1.1-4.57,1.1s-3.22-0.37-4.57-1.1
					c-1.34-0.73-2.4-1.78-3.18-3.15c-0.77-1.37-1.16-2.97-1.16-4.82c0-1.85,0.39-3.46,1.16-4.84c0.78-1.38,1.84-2.43,3.18-3.16
					c1.34-0.73,2.87-1.1,4.57-1.1S362.03,107.58,363.37,108.32z M355.88,110.51c-0.89,0.47-1.61,1.2-2.16,2.18
					c-0.55,0.98-0.82,2.19-0.82,3.63c0,1.42,0.27,2.62,0.82,3.6c0.55,0.98,1.27,1.7,2.16,2.18c0.89,0.47,1.87,0.71,2.92,0.71
					c1.05,0,2.03-0.24,2.92-0.71c0.89-0.47,1.61-1.2,2.16-2.18c0.55-0.98,0.82-2.18,0.82-3.6c0-1.44-0.27-2.65-0.82-3.63
					c-0.55-0.98-1.27-1.7-2.16-2.18c-0.89-0.47-1.87-0.71-2.92-0.71C357.75,109.8,356.78,110.04,355.88,110.51z"/>
				<path id="XMLID_844_" class="st7" d="M390.25,108.51c1.19,0.86,2.03,2.01,2.5,3.45v-4.52h2.94v18.01c0,1.63-0.34,3.09-1.03,4.36
					c-0.69,1.27-1.66,2.26-2.9,2.97c-1.25,0.71-2.7,1.06-4.36,1.06c-2.39,0-4.34-0.58-5.84-1.73c-1.51-1.15-2.46-2.71-2.87-4.66h2.9
					c0.34,1.18,0.99,2.11,1.95,2.79c0.96,0.68,2.19,1.02,3.69,1.02c1.59,0,2.91-0.51,3.95-1.53c1.04-1.02,1.56-2.45,1.56-4.28v-4.81
					c-0.47,1.44-1.31,2.59-2.5,3.45c-1.19,0.86-2.65,1.29-4.37,1.29c-1.57,0-2.97-0.37-4.2-1.1c-1.23-0.73-2.19-1.78-2.89-3.15
					c-0.7-1.37-1.05-2.97-1.05-4.82c0-1.85,0.35-3.46,1.05-4.84c0.7-1.38,1.66-2.43,2.89-3.16c1.23-0.73,2.62-1.1,4.2-1.1
					C387.6,107.22,389.06,107.65,390.25,108.51z M382.38,111.56c-1.09,1.15-1.63,2.74-1.63,4.76c0,2.02,0.54,3.61,1.63,4.76
					c1.09,1.15,2.53,1.73,4.34,1.73c1.16,0,2.2-0.27,3.11-0.81c0.91-0.54,1.63-1.3,2.15-2.27c0.52-0.98,0.77-2.11,0.77-3.4
					c0-1.29-0.26-2.43-0.77-3.42c-0.52-0.99-1.23-1.75-2.15-2.27s-1.95-0.79-3.11-0.79C384.91,109.83,383.46,110.41,382.38,111.56z"
					/>
				<path id="XMLID_841_" class="st7" d="M407.5,100.94c0.37-0.33,0.85-0.5,1.45-0.5s1.09,0.17,1.45,0.5
					c0.37,0.33,0.55,0.77,0.55,1.31s-0.18,0.97-0.55,1.31c-0.37,0.33-0.85,0.5-1.45,0.5s-1.09-0.17-1.45-0.5
					c-0.37-0.33-0.55-0.77-0.55-1.31S407.13,101.28,407.5,100.94z M410.4,107.44v17.72h-2.94v-17.72H410.4z"/>
				<path id="XMLID_838_" class="st7" d="M438.38,116.93h-14.17c0.06,2.02,0.64,3.54,1.73,4.55c1.09,1.01,2.42,1.52,3.99,1.52
					c1.42,0,2.61-0.36,3.57-1.08c0.96-0.72,1.54-1.68,1.76-2.89h3.13c-0.22,1.23-0.69,2.32-1.44,3.29
					c-0.74,0.97-1.71,1.72-2.89,2.26c-1.18,0.54-2.52,0.81-4,0.81c-1.7,0-3.21-0.37-4.52-1.1c-1.31-0.73-2.34-1.78-3.08-3.15
					c-0.74-1.37-1.11-2.97-1.11-4.82c0-1.85,0.37-3.46,1.11-4.84c0.74-1.38,1.77-2.43,3.08-3.16c1.31-0.73,2.82-1.1,4.52-1.1
					c1.72,0,3.22,0.37,4.5,1.1s2.26,1.71,2.94,2.94c0.68,1.23,1.02,2.58,1.02,4.07C438.51,115.94,438.46,116.48,438.38,116.93z
					 M434.89,112.22c-0.49-0.88-1.17-1.54-2.03-1.97c-0.86-0.43-1.8-0.65-2.81-0.65c-1.61,0-2.97,0.5-4.07,1.5
					c-1.1,1-1.69,2.47-1.78,4.4h11.33C435.6,114.2,435.39,113.1,434.89,112.22z"/>
				<path id="XMLID_836_" class="st7" d="M459.82,108.78c1.22,1.04,1.95,2.45,2.21,4.21h-2.81c-0.13-1.05-0.56-1.92-1.31-2.6
					c-0.74-0.68-1.74-1.02-2.98-1.02c-1.05,0-1.88,0.25-2.47,0.76s-0.89,1.19-0.89,2.05c0,0.65,0.2,1.17,0.6,1.57
					c0.4,0.4,0.89,0.7,1.48,0.9c0.59,0.2,1.4,0.42,2.44,0.66c1.31,0.3,2.37,0.61,3.18,0.92c0.81,0.31,1.49,0.81,2.07,1.5
					c0.57,0.69,0.85,1.61,0.85,2.78c0,1.44-0.54,2.61-1.63,3.52c-1.09,0.9-2.53,1.36-4.34,1.36c-2.11,0-3.83-0.51-5.16-1.52
					c-1.34-1.01-2.12-2.42-2.36-4.23h2.84c0.11,1.08,0.58,1.95,1.4,2.61c0.83,0.67,1.92,1,3.28,1c1.01,0,1.8-0.26,2.37-0.77
					c0.57-0.52,0.85-1.19,0.85-2.03c0-0.69-0.2-1.24-0.61-1.65c-0.41-0.41-0.92-0.72-1.52-0.94c-0.6-0.21-1.43-0.44-2.49-0.68
					c-1.31-0.3-2.36-0.6-3.15-0.9c-0.79-0.3-1.45-0.78-2-1.44c-0.55-0.66-0.82-1.54-0.82-2.66c0-1.48,0.55-2.68,1.65-3.6
					s2.59-1.37,4.49-1.37C457,107.22,458.61,107.74,459.82,108.78z"/>
			</g>
		</g>
		<g id="XMLID_430_">
			<rect id="XMLID_653_" x="173" y="141.53" class="st8" width="288.51" height="0.73"/>
		</g>
		<g id="XMLID_1_">
			<path id="XMLID_2_" class="st9" d="M179.38,157.29c0.39,0.45,0.58,0.99,0.58,1.62c0,0.8-0.27,1.45-0.82,1.95
				c-0.55,0.5-1.34,0.74-2.38,0.74h-3.48v-10h3.43c1,0,1.76,0.23,2.26,0.67c0.51,0.45,0.76,1.05,0.76,1.81
				c0,0.65-0.17,1.18-0.52,1.57c-0.35,0.39-0.8,0.65-1.35,0.77C178.49,156.55,178.99,156.84,179.38,157.29z M174.29,156.07h2.3
				c0.7,0,1.23-0.16,1.6-0.49c0.36-0.33,0.55-0.77,0.55-1.34c0-0.56-0.18-1-0.54-1.32c-0.36-0.32-0.91-0.48-1.66-0.48h-2.24V156.07z
				 M178.33,160.23c0.41-0.35,0.62-0.82,0.62-1.44c0-0.6-0.21-1.08-0.64-1.44c-0.43-0.35-1.01-0.53-1.76-0.53h-2.27v3.93h2.3
				C177.33,160.75,177.91,160.58,178.33,160.23z"/>
			<path id="XMLID_6_" class="st9" d="M186.53,154.17c0.5-0.3,1.11-0.45,1.83-0.45v1.08h-0.33c-0.75,0-1.37,0.2-1.86,0.6
				c-0.49,0.4-0.74,1.06-0.74,1.97v4.24h-1.01v-7.75h1.01v1.6C185.67,154.9,186.03,154.47,186.53,154.17z"/>
			<path id="XMLID_8_" class="st9" d="M192.42,151.06c0.14-0.12,0.32-0.18,0.53-0.18s0.39,0.06,0.52,0.18
				c0.13,0.12,0.2,0.29,0.2,0.5c0,0.2-0.07,0.36-0.2,0.48c-0.13,0.12-0.31,0.18-0.52,0.18s-0.4-0.06-0.53-0.18
				c-0.14-0.12-0.2-0.28-0.2-0.48C192.22,151.35,192.29,151.18,192.42,151.06z M193.45,153.86v7.75h-1.01v-7.75H193.45z"/>
			<path id="XMLID_11_" class="st9" d="M204.44,154.57c0.56,0.57,0.84,1.41,0.84,2.52v4.51h-0.98v-4.44c0-0.84-0.21-1.49-0.64-1.94
				c-0.43-0.45-1.01-0.67-1.75-0.67c-0.78,0-1.39,0.25-1.85,0.74s-0.69,1.23-0.69,2.19v4.11h-1.01v-7.75h1.01v1.9
				c0.2-0.66,0.56-1.17,1.08-1.52c0.52-0.35,1.12-0.52,1.79-0.52C203.15,153.71,203.88,154,204.44,154.57z"/>
			<path id="XMLID_13_" class="st9" d="M215.42,154.37c0.55,0.41,0.93,0.95,1.14,1.62v-2.13h0.98v7.93c0,0.72-0.15,1.35-0.45,1.89
				s-0.72,0.96-1.26,1.26c-0.54,0.3-1.15,0.45-1.84,0.45c-1.01,0-1.84-0.24-2.49-0.73c-0.65-0.49-1.07-1.15-1.27-1.98h0.99
				c0.17,0.57,0.48,1.02,0.94,1.35c0.46,0.33,1.05,0.5,1.77,0.5c0.49,0,0.94-0.11,1.34-0.32c0.4-0.21,0.72-0.53,0.95-0.94
				c0.23-0.42,0.35-0.91,0.35-1.48v-2.31c-0.21,0.67-0.59,1.21-1.14,1.62c-0.55,0.41-1.22,0.61-2.01,0.61
				c-0.7,0-1.33-0.16-1.88-0.48c-0.55-0.32-0.98-0.78-1.29-1.38c-0.31-0.6-0.46-1.3-0.46-2.11c0-0.81,0.15-1.52,0.46-2.12
				s0.74-1.06,1.28-1.38c0.55-0.32,1.18-0.48,1.89-0.48C214.2,153.76,214.87,153.96,215.42,154.37z M211.58,155.47
				c-0.52,0.55-0.79,1.31-0.79,2.26s0.26,1.71,0.79,2.26c0.52,0.55,1.22,0.83,2.09,0.83c0.55,0,1.04-0.13,1.48-0.38
				c0.44-0.26,0.79-0.62,1.04-1.09c0.25-0.47,0.38-1.01,0.38-1.62c0-0.61-0.12-1.16-0.38-1.62c-0.25-0.47-0.6-0.83-1.04-1.09
				c-0.44-0.26-0.93-0.38-1.48-0.38C212.8,154.64,212.1,154.91,211.58,155.47z"/>
			<path id="XMLID_36_" class="st9" d="M228.9,151.06c0.14-0.12,0.32-0.18,0.53-0.18c0.22,0,0.39,0.06,0.52,0.18
				c0.13,0.12,0.2,0.29,0.2,0.5c0,0.2-0.07,0.36-0.2,0.48c-0.13,0.12-0.31,0.18-0.52,0.18c-0.22,0-0.4-0.06-0.53-0.18
				c-0.14-0.12-0.2-0.28-0.2-0.48C228.69,151.35,228.76,151.18,228.9,151.06z M229.93,153.86v7.75h-1.01v-7.75H229.93z"/>
			<path id="XMLID_39_" class="st9" d="M240.12,154.37c0.55,0.41,0.93,0.95,1.13,1.62v-4.88h0.99v10.5h-0.99v-2.13
				c-0.2,0.67-0.57,1.21-1.13,1.62c-0.55,0.41-1.22,0.61-2.01,0.61c-0.7,0-1.33-0.16-1.88-0.48c-0.55-0.32-0.98-0.78-1.29-1.38
				c-0.31-0.6-0.46-1.3-0.46-2.11c0-0.81,0.15-1.52,0.46-2.12s0.74-1.06,1.28-1.38c0.55-0.32,1.18-0.48,1.89-0.48
				C238.9,153.76,239.57,153.96,240.12,154.37z M236.28,155.47c-0.52,0.55-0.79,1.31-0.79,2.26s0.26,1.71,0.79,2.26
				c0.52,0.55,1.22,0.83,2.09,0.83c0.55,0,1.04-0.13,1.48-0.38c0.44-0.26,0.79-0.62,1.04-1.09c0.25-0.47,0.38-1.01,0.38-1.62
				c0-0.61-0.12-1.16-0.38-1.62c-0.25-0.47-0.6-0.83-1.04-1.09c-0.44-0.26-0.93-0.38-1.48-0.38
				C237.5,154.64,236.8,154.91,236.28,155.47z"/>
			<path id="XMLID_43_" class="st9" d="M252.3,160.35c0.47-0.35,0.76-0.82,0.85-1.42h1.05c-0.14,0.82-0.53,1.49-1.18,2
				c-0.64,0.51-1.46,0.77-2.44,0.77c-0.74,0-1.39-0.16-1.97-0.48c-0.57-0.32-1.02-0.78-1.34-1.38c-0.32-0.6-0.48-1.31-0.48-2.12
				c0-0.81,0.16-1.52,0.48-2.12c0.32-0.6,0.77-1.06,1.34-1.38c0.57-0.32,1.23-0.48,1.97-0.48c0.76,0,1.41,0.16,1.96,0.48
				c0.55,0.32,0.97,0.74,1.26,1.27c0.29,0.53,0.43,1.11,0.43,1.73c0,0.26-0.02,0.51-0.06,0.72h-6.41c0.01,0.65,0.14,1.2,0.4,1.64
				c0.26,0.44,0.6,0.76,1.02,0.97c0.42,0.21,0.87,0.31,1.35,0.31C251.24,160.88,251.83,160.7,252.3,160.35z M249.21,154.88
				c-0.42,0.21-0.76,0.53-1.02,0.96c-0.26,0.43-0.4,0.97-0.42,1.61h5.48c0.04-0.63-0.07-1.17-0.31-1.6
				c-0.25-0.44-0.58-0.76-0.99-0.96c-0.42-0.21-0.87-0.31-1.36-0.31C250.08,154.57,249.62,154.67,249.21,154.88z"/>
			<path id="XMLID_46_" class="st9" d="M264.07,154.37c0.55,0.41,0.93,0.95,1.14,1.62v-2.13h0.98v7.75h-0.98v-2.13
				c-0.21,0.67-0.59,1.21-1.14,1.62c-0.55,0.41-1.22,0.61-2.01,0.61c-0.7,0-1.33-0.16-1.88-0.48c-0.55-0.32-0.98-0.78-1.29-1.38
				c-0.31-0.6-0.46-1.3-0.46-2.11c0-0.81,0.15-1.52,0.46-2.12c0.31-0.6,0.74-1.06,1.28-1.38c0.55-0.32,1.18-0.48,1.89-0.48
				C262.85,153.76,263.52,153.96,264.07,154.37z M260.22,155.47c-0.52,0.55-0.79,1.31-0.79,2.26s0.26,1.71,0.79,2.26
				c0.52,0.55,1.22,0.83,2.09,0.83c0.55,0,1.04-0.13,1.48-0.38c0.44-0.26,0.79-0.62,1.04-1.09s0.38-1.01,0.38-1.62
				c0-0.61-0.12-1.16-0.38-1.62s-0.6-0.83-1.04-1.09c-0.44-0.26-0.93-0.38-1.48-0.38C261.45,154.64,260.75,154.91,260.22,155.47z"/>
			<path id="XMLID_49_" class="st9" d="M275.48,154.42c0.51,0.44,0.82,1.05,0.94,1.8h-0.95c-0.06-0.5-0.26-0.92-0.62-1.24
				c-0.35-0.33-0.83-0.49-1.43-0.49c-0.51,0-0.91,0.13-1.2,0.38c-0.29,0.25-0.43,0.58-0.43,1c0,0.31,0.09,0.56,0.28,0.75
				s0.41,0.33,0.69,0.43c0.27,0.1,0.64,0.2,1.11,0.31c0.57,0.13,1.02,0.27,1.37,0.4c0.35,0.14,0.64,0.35,0.89,0.64
				c0.24,0.29,0.37,0.69,0.37,1.19c0,0.61-0.23,1.12-0.69,1.51c-0.46,0.39-1.07,0.59-1.82,0.59c-0.89,0-1.62-0.22-2.18-0.66
				c-0.57-0.44-0.9-1.04-1.01-1.81h0.96c0.06,0.51,0.28,0.93,0.67,1.25s0.91,0.48,1.57,0.48c0.49,0,0.87-0.13,1.15-0.38
				c0.27-0.26,0.41-0.59,0.41-0.99c0-0.33-0.09-0.6-0.28-0.79c-0.19-0.2-0.42-0.35-0.7-0.45c-0.28-0.1-0.66-0.2-1.14-0.32
				c-0.56-0.13-1.01-0.26-1.34-0.4c-0.34-0.13-0.62-0.34-0.86-0.62c-0.24-0.28-0.35-0.66-0.35-1.14c0-0.63,0.23-1.14,0.7-1.53
				c0.46-0.39,1.09-0.58,1.89-0.58C274.3,153.76,274.97,153.98,275.48,154.42z"/>
			<path id="XMLID_69_" class="st9" d="M293.01,154.23c0.58,0.32,1.04,0.78,1.37,1.38c0.33,0.6,0.5,1.31,0.5,2.12
				c0,0.81-0.17,1.52-0.5,2.11c-0.33,0.6-0.79,1.05-1.37,1.38c-0.58,0.32-1.24,0.48-1.98,0.48c-0.74,0-1.4-0.16-1.99-0.48
				c-0.59-0.32-1.05-0.78-1.38-1.38c-0.34-0.6-0.5-1.3-0.5-2.11c0-0.81,0.17-1.52,0.5-2.12c0.34-0.6,0.8-1.06,1.38-1.38
				c0.59-0.32,1.25-0.48,1.99-0.48C291.77,153.76,292.43,153.91,293.01,154.23z M289.61,154.96c-0.44,0.23-0.79,0.57-1.05,1.04
				s-0.4,1.04-0.4,1.72c0,0.68,0.13,1.25,0.4,1.72c0.26,0.46,0.61,0.81,1.05,1.04c0.44,0.23,0.91,0.34,1.42,0.34
				c0.5,0,0.97-0.11,1.4-0.34s0.78-0.57,1.04-1.04c0.26-0.46,0.4-1.04,0.4-1.72c0-0.68-0.13-1.26-0.4-1.72s-0.61-0.82-1.04-1.04
				c-0.43-0.23-0.9-0.34-1.4-0.34C290.52,154.62,290.05,154.74,289.61,154.96z"/>
			<path id="XMLID_72_" class="st9" d="M305.49,154.57c0.56,0.57,0.84,1.41,0.84,2.52v4.51h-0.98v-4.44c0-0.84-0.21-1.49-0.64-1.94
				c-0.43-0.45-1.01-0.67-1.75-0.67c-0.78,0-1.39,0.25-1.85,0.74s-0.69,1.23-0.69,2.19v4.11h-1.01v-7.75h1.01v1.9
				c0.2-0.66,0.56-1.17,1.08-1.52c0.52-0.35,1.12-0.52,1.79-0.52C304.2,153.71,304.93,154,305.49,154.57z"/>
			<path id="XMLID_74_" class="st9" d="M317.87,153.86l2.7,6.45l2.48-6.45h1.11l-4.55,11.41h-1.14l1.56-3.74l-3.26-7.66H317.87z"/>
			<path id="XMLID_77_" class="st9" d="M333.67,154.23c0.58,0.32,1.04,0.78,1.37,1.38c0.33,0.6,0.5,1.31,0.5,2.12
				c0,0.81-0.17,1.52-0.5,2.11c-0.33,0.6-0.79,1.05-1.37,1.38c-0.58,0.32-1.24,0.48-1.98,0.48s-1.4-0.16-1.99-0.48
				c-0.59-0.32-1.05-0.78-1.38-1.38c-0.34-0.6-0.5-1.3-0.5-2.11c0-0.81,0.17-1.52,0.5-2.12c0.34-0.6,0.8-1.06,1.38-1.38
				c0.59-0.32,1.25-0.48,1.99-0.48S333.09,153.91,333.67,154.23z M330.27,154.96c-0.44,0.23-0.79,0.57-1.05,1.04s-0.4,1.04-0.4,1.72
				c0,0.68,0.13,1.25,0.4,1.72c0.26,0.46,0.61,0.81,1.05,1.04c0.44,0.23,0.91,0.34,1.42,0.34c0.5,0,0.97-0.11,1.4-0.34
				c0.43-0.23,0.78-0.57,1.04-1.04c0.26-0.46,0.4-1.04,0.4-1.72c0-0.68-0.13-1.26-0.4-1.72s-0.61-0.82-1.04-1.04
				c-0.43-0.23-0.9-0.34-1.4-0.34C331.18,154.62,330.71,154.74,330.27,154.96z"/>
			<path id="XMLID_80_" class="st9" d="M346.77,153.86v7.75h-0.99v-1.92c-0.2,0.67-0.56,1.18-1.08,1.53
				c-0.52,0.35-1.12,0.52-1.79,0.52c-0.91,0-1.64-0.29-2.21-0.86s-0.84-1.41-0.84-2.52v-4.51h0.99v4.43c0,0.85,0.21,1.5,0.64,1.95
				c0.43,0.45,1.01,0.67,1.75,0.67c0.78,0,1.39-0.25,1.85-0.74s0.69-1.23,0.69-2.19v-4.11H346.77z"/>
			<path id="XMLID_82_" class="st9" d="M353.81,154.17c0.5-0.3,1.11-0.45,1.83-0.45v1.08h-0.33c-0.75,0-1.37,0.2-1.86,0.6
				c-0.49,0.4-0.74,1.06-0.74,1.97v4.24h-1.01v-7.75h1.01v1.6C352.94,154.9,353.3,154.47,353.81,154.17z"/>
			<path id="XMLID_84_" class="st9" d="M367.93,152.19c-0.29,0.27-0.43,0.72-0.43,1.35v0.31h1.94v0.88h-1.94v6.87h-0.99v-6.87h-1.15
				v-0.88h1.15v-0.38c0-0.87,0.24-1.52,0.71-1.96c0.47-0.44,1.22-0.63,2.23-0.6v0.88C368.72,151.79,368.22,151.92,367.93,152.19z"/>
			<path id="XMLID_86_" class="st9" d="M373.67,151.06c0.14-0.12,0.32-0.18,0.53-0.18s0.39,0.06,0.52,0.18
				c0.13,0.12,0.2,0.29,0.2,0.5c0,0.2-0.07,0.36-0.2,0.48c-0.13,0.12-0.31,0.18-0.52,0.18s-0.4-0.06-0.53-0.18
				c-0.14-0.12-0.2-0.28-0.2-0.48C373.47,151.35,373.54,151.18,373.67,151.06z M374.7,153.86v7.75h-1.01v-7.75H374.7z"/>
			<path id="XMLID_89_" class="st9" d="M385.69,154.57c0.56,0.57,0.84,1.41,0.84,2.52v4.51h-0.98v-4.44c0-0.84-0.21-1.49-0.64-1.94
				c-0.43-0.45-1.01-0.67-1.75-0.67c-0.78,0-1.39,0.25-1.85,0.74c-0.46,0.5-0.69,1.23-0.69,2.19v4.11h-1.01v-7.75h1.01v1.9
				c0.2-0.66,0.56-1.17,1.08-1.52c0.52-0.35,1.12-0.52,1.79-0.52C384.4,153.71,385.13,154,385.69,154.57z"/>
			<path id="XMLID_91_" class="st9" d="M396.67,154.37c0.55,0.41,0.93,0.95,1.14,1.62v-2.13h0.98v7.93c0,0.72-0.15,1.35-0.45,1.89
				c-0.3,0.54-0.72,0.96-1.26,1.26c-0.54,0.3-1.15,0.45-1.84,0.45c-1.01,0-1.84-0.24-2.49-0.73c-0.65-0.49-1.07-1.15-1.27-1.98h0.99
				c0.17,0.57,0.48,1.02,0.94,1.35c0.46,0.33,1.05,0.5,1.77,0.5c0.49,0,0.94-0.11,1.34-0.32c0.4-0.21,0.72-0.53,0.95-0.94
				c0.23-0.42,0.35-0.91,0.35-1.48v-2.31c-0.21,0.67-0.59,1.21-1.14,1.62c-0.55,0.41-1.22,0.61-2.01,0.61
				c-0.7,0-1.33-0.16-1.88-0.48c-0.55-0.32-0.98-0.78-1.29-1.38c-0.31-0.6-0.46-1.3-0.46-2.11c0-0.81,0.15-1.52,0.46-2.12
				c0.31-0.6,0.74-1.06,1.28-1.38c0.55-0.32,1.18-0.48,1.89-0.48C395.45,153.76,396.12,153.96,396.67,154.37z M392.83,155.47
				c-0.52,0.55-0.79,1.31-0.79,2.26s0.26,1.71,0.79,2.26c0.52,0.55,1.22,0.83,2.09,0.83c0.55,0,1.04-0.13,1.48-0.38
				c0.44-0.26,0.79-0.62,1.04-1.09c0.25-0.47,0.38-1.01,0.38-1.62c0-0.61-0.12-1.16-0.38-1.62c-0.25-0.47-0.6-0.83-1.04-1.09
				c-0.44-0.26-0.93-0.38-1.48-0.38C394.05,154.64,393.35,154.91,392.83,155.47z"/>
			<path id="XMLID_94_" class="st9" d="M408.85,160.35c0.47-0.35,0.76-0.82,0.85-1.42h1.05c-0.14,0.82-0.53,1.49-1.18,2
				c-0.64,0.51-1.46,0.77-2.44,0.77c-0.74,0-1.39-0.16-1.97-0.48c-0.57-0.32-1.02-0.78-1.34-1.38c-0.32-0.6-0.48-1.31-0.48-2.12
				c0-0.81,0.16-1.52,0.48-2.12s0.77-1.06,1.34-1.38c0.57-0.32,1.23-0.48,1.97-0.48c0.76,0,1.41,0.16,1.96,0.48
				c0.55,0.32,0.97,0.74,1.26,1.27c0.29,0.53,0.43,1.11,0.43,1.73c0,0.26-0.02,0.51-0.06,0.72h-6.41c0.01,0.65,0.14,1.2,0.4,1.64
				c0.26,0.44,0.6,0.76,1.02,0.97s0.87,0.31,1.35,0.31C407.79,160.88,408.38,160.7,408.85,160.35z M405.76,154.88
				c-0.42,0.21-0.76,0.53-1.02,0.96c-0.26,0.43-0.4,0.97-0.42,1.61h5.48c0.04-0.63-0.07-1.17-0.31-1.6
				c-0.25-0.44-0.58-0.76-0.99-0.96c-0.42-0.21-0.87-0.31-1.36-0.31C406.63,154.57,406.17,154.67,405.76,154.88z"/>
			<path id="XMLID_97_" class="st9" d="M417.45,154.17c0.5-0.3,1.11-0.45,1.83-0.45v1.08h-0.33c-0.75,0-1.37,0.2-1.86,0.6
				c-0.49,0.4-0.74,1.06-0.74,1.97v4.24h-1.01v-7.75h1.01v1.6C416.58,154.9,416.95,154.47,417.45,154.17z"/>
			<path id="XMLID_100_" class="st9" d="M426.88,160.72v0.88h-0.92c-0.75,0-1.31-0.18-1.67-0.53c-0.37-0.35-0.55-0.95-0.55-1.79
				v-4.55h-1.18v-0.87h1.18v-1.96h1.01v1.96h2.13v0.87h-2.13v4.57c0,0.55,0.1,0.92,0.3,1.13s0.55,0.31,1.05,0.31H426.88z"/>
			<path id="XMLID_111_" class="st9" d="M431.26,151.06c0.14-0.12,0.32-0.18,0.53-0.18s0.39,0.06,0.52,0.18
				c0.13,0.12,0.2,0.29,0.2,0.5c0,0.2-0.07,0.36-0.2,0.48c-0.13,0.12-0.31,0.18-0.52,0.18s-0.4-0.06-0.53-0.18
				c-0.14-0.12-0.2-0.28-0.2-0.48C431.05,151.35,431.12,151.18,431.26,151.06z M432.29,153.86v7.75h-1.01v-7.75H432.29z"/>
			<path id="XMLID_114_" class="st9" d="M443.23,154.23c0.54,0.32,0.97,0.78,1.28,1.38c0.31,0.6,0.46,1.31,0.46,2.12
				c0,0.8-0.15,1.51-0.46,2.11c-0.31,0.6-0.74,1.06-1.28,1.38c-0.55,0.32-1.17,0.48-1.87,0.48c-0.79,0-1.47-0.2-2.01-0.61
				c-0.55-0.41-0.93-0.95-1.14-1.62v5.79h-0.99v-11.41h0.99v2.13c0.21-0.67,0.59-1.21,1.14-1.62s1.22-0.61,2.01-0.61
				C442.06,153.76,442.69,153.91,443.23,154.23z M439.6,155.02c-0.44,0.26-0.78,0.62-1.03,1.09s-0.37,1.01-0.37,1.62
				c0,0.61,0.12,1.16,0.37,1.62s0.59,0.83,1.03,1.09c0.44,0.26,0.93,0.38,1.48,0.38c0.88,0,1.58-0.28,2.1-0.83
				c0.52-0.55,0.78-1.31,0.78-2.26s-0.26-1.71-0.78-2.26c-0.52-0.55-1.22-0.83-2.1-0.83C440.53,154.64,440.04,154.76,439.6,155.02z"
				/>
			<path id="XMLID_117_" class="st9" d="M453.89,154.42c0.51,0.44,0.82,1.05,0.94,1.8h-0.95c-0.06-0.5-0.26-0.92-0.62-1.24
				c-0.35-0.33-0.83-0.49-1.43-0.49c-0.51,0-0.91,0.13-1.2,0.38c-0.29,0.25-0.43,0.58-0.43,1c0,0.31,0.09,0.56,0.28,0.75
				s0.41,0.33,0.69,0.43c0.27,0.1,0.64,0.2,1.11,0.31c0.57,0.13,1.02,0.27,1.37,0.4c0.35,0.14,0.64,0.35,0.89,0.64
				c0.24,0.29,0.37,0.69,0.37,1.19c0,0.61-0.23,1.12-0.69,1.51c-0.46,0.39-1.07,0.59-1.82,0.59c-0.89,0-1.62-0.22-2.19-0.66
				c-0.57-0.44-0.9-1.04-1.01-1.81h0.96c0.06,0.51,0.28,0.93,0.67,1.25s0.91,0.48,1.57,0.48c0.49,0,0.87-0.13,1.15-0.38
				s0.41-0.59,0.41-0.99c0-0.33-0.09-0.6-0.28-0.79c-0.19-0.2-0.42-0.35-0.7-0.45c-0.28-0.1-0.66-0.2-1.14-0.32
				c-0.56-0.13-1.01-0.26-1.34-0.4c-0.34-0.13-0.62-0.34-0.86-0.62c-0.24-0.28-0.35-0.66-0.35-1.14c0-0.63,0.23-1.14,0.7-1.53
				c0.46-0.39,1.09-0.58,1.89-0.58C452.71,153.76,453.38,153.98,453.89,154.42z"/>
			<path id="XMLID_119_" class="st9" d="M461.07,160.32v1.28h-1.32v-1.28H461.07z M460.94,151.43l-0.16,7.39h-0.79l-0.16-7.39
				H460.94z"/>
		</g>
	</g>
</g>
</svg>
